<?xml version="1.0" encoding="UTF-8" standalone="no"?>
<!-- Created with Inkscape (http://www.inkscape.org/) -->

<svg
   xmlns:dc="http://purl.org/dc/elements/1.1/"
   xmlns:cc="http://creativecommons.org/ns#"
   xmlns:rdf="http://www.w3.org/1999/02/22-rdf-syntax-ns#"
   xmlns:svg="http://www.w3.org/2000/svg"
   xmlns="http://www.w3.org/2000/svg"
   xmlns:sodipodi="http://sodipodi.sourceforge.net/DTD/sodipodi-0.dtd"
   xmlns:inkscape="http://www.inkscape.org/namespaces/inkscape"
   width="744.09448819"
   height="1052.3622047"
   id="svg2"
   version="1.1"
   inkscape:version="0.48.4 r9939"
   sodipodi:docname="layout.svg">
  <defs
     id="defs4">
    <filter
       inkscape:collect="always"
       id="filter4279"
       x="-2.1342142"
       width="5.2684285"
       y="-3.0018274"
       height="7.0036548">
      <feGaussianBlur
         inkscape:collect="always"
         stdDeviation="2.2981529"
         id="feGaussianBlur4281" />
    </filter>
    <filter
       inkscape:collect="always"
       id="filter4283"
       x="-2.1243423"
       width="5.2486847"
       y="-3.0611149"
       height="7.1222298">
      <feGaussianBlur
         inkscape:collect="always"
         stdDeviation="2.2981529"
         id="feGaussianBlur4285" />
    </filter>
    <filter
       inkscape:collect="always"
       id="filter4287"
       x="-2.1610101"
       width="5.3220201"
       y="-2.9332592"
       height="6.8665185">
      <feGaussianBlur
         inkscape:collect="always"
         stdDeviation="2.2981529"
         id="feGaussianBlur4289" />
    </filter>
    <filter
       inkscape:collect="always"
       id="filter4291"
       x="-2.4400094"
       width="5.8800187"
       y="-2.4925134"
       height="5.9850269">
      <feGaussianBlur
         inkscape:collect="always"
         stdDeviation="2.2981529"
         id="feGaussianBlur4293" />
    </filter>
    <filter
       inkscape:collect="always"
       id="filter4295"
       x="-2.8861896"
       width="6.7723791"
       y="-2.5425314"
       height="6.0850629">
      <feGaussianBlur
         inkscape:collect="always"
         stdDeviation="2.2981529"
         id="feGaussianBlur4297" />
    </filter>
    <filter
       inkscape:collect="always"
       id="filter4299"
       x="-3.1132229"
       width="7.2264458"
       y="-3.0386508"
       height="7.0773016">
      <feGaussianBlur
         inkscape:collect="always"
         stdDeviation="2.2981529"
         id="feGaussianBlur4301" />
    </filter>
    <filter
       inkscape:collect="always"
       id="filter4303"
       x="-3.3195409"
       width="7.6390817"
       y="-4.1794543"
       height="9.3589086">
      <feGaussianBlur
         inkscape:collect="always"
         stdDeviation="2.2981529"
         id="feGaussianBlur4305" />
    </filter>
    <filter
       inkscape:collect="always"
       id="filter4323">
      <feGaussianBlur
         inkscape:collect="always"
         stdDeviation="1.476896"
         id="feGaussianBlur4325" />
    </filter>
    <filter
       inkscape:collect="always"
       id="filter4381">
      <feGaussianBlur
         inkscape:collect="always"
         stdDeviation="1.1927549"
         id="feGaussianBlur4383" />
    </filter>
  </defs>
  <sodipodi:namedview
     id="base"
     pagecolor="#ffffff"
     bordercolor="#666666"
     borderopacity="1.0"
     inkscape:pageopacity="0.0"
     inkscape:pageshadow="2"
     inkscape:zoom="1.541573"
     inkscape:cx="280.51035"
     inkscape:cy="183.165"
     inkscape:document-units="px"
     inkscape:current-layer="layer1"
     showgrid="false"
     inkscape:window-width="1600"
     inkscape:window-height="845"
     inkscape:window-x="-2"
     inkscape:window-y="-3"
     inkscape:window-maximized="1" />
  <metadata
     id="metadata7">
    <rdf:RDF>
      <cc:Work
         rdf:about="">
        <dc:format>image/svg+xml</dc:format>
        <dc:type
           rdf:resource="http://purl.org/dc/dcmitype/StillImage" />
        <dc:title></dc:title>
      </cc:Work>
    </rdf:RDF>
  </metadata>
  <g
     inkscape:label="Layer 1"
     inkscape:groupmode="layer"
     id="layer1">
    <g
       id="g26"
       transform="matrix(1.25,0,0,-1.25,459.43156,191.87823)"
       style="fill:#00458f;fill-opacity:0.94117647"
       inkscape:export-filename="/home/aaf/Documents/000_JOBS/0001_Job_search/000_Website/img/github_focus.png"
       inkscape:export-xdpi="90"
       inkscape:export-ydpi="90">
      <path
         d="m 0,0 c -33.347,0 -60.388,-27.035 -60.388,-60.388 0,-26.68 17.303,-49.316 41.297,-57.301 3.018,-0.559 4.126,1.31 4.126,2.905 0,1.439 -0.056,6.197 -0.082,11.243 -16.8,-3.653 -20.345,7.125 -20.345,7.125 -2.747,6.979 -6.705,8.836 -6.705,8.836 -5.479,3.748 0.413,3.671 0.413,3.671 6.064,-0.426 9.257,-6.224 9.257,-6.224 5.386,-9.231 14.127,-6.562 17.573,-5.019 0.543,3.902 2.107,6.567 3.834,8.075 -13.413,1.526 -27.513,6.705 -27.513,29.844 0,6.592 2.359,11.98 6.222,16.209 -0.627,1.521 -2.694,7.663 0.586,15.981 0,0 5.071,1.622 16.61,-6.191 4.817,1.338 9.983,2.009 15.115,2.033 5.132,-0.024 10.302,-0.695 15.128,-2.033 11.526,7.813 16.59,6.191 16.59,6.191 3.287,-8.318 1.22,-14.46 0.593,-15.981 3.872,-4.229 6.214,-9.617 6.214,-16.209 0,-23.195 -14.127,-28.301 -27.574,-29.796 2.166,-1.874 4.096,-5.549 4.096,-11.183 0,-8.08 -0.069,-14.583 -0.069,-16.572 0,-1.608 1.086,-3.49 4.147,-2.898 23.982,7.994 41.263,30.622 41.263,57.294 C 60.388,-27.035 33.351,0 0,0"
         style="fill:#00458f;fill-opacity:0.94117647;fill-rule:evenodd;stroke:none"
         id="path28"
         inkscape:connector-curvature="0" />
    </g>
    <g
       id="g30"
       transform="matrix(1.25,0,0,-1.25,412.53706,300.25722)"
       style="fill:#00458f;fill-opacity:0.94117647"
       inkscape:export-filename="/home/aaf/Documents/000_JOBS/0001_Job_search/000_Website/img/github_focus.png"
       inkscape:export-xdpi="90"
       inkscape:export-ydpi="90">
      <path
         d="m 0,0 c -0.133,-0.301 -0.605,-0.391 -1.035,-0.185 -0.439,0.198 -0.684,0.607 -0.542,0.908 0.13,0.308 0.602,0.394 1.04,0.188 C -0.099,0.714 0.151,0.301 0,0"
         style="fill:#00458f;fill-opacity:0.94117647;fill-rule:nonzero;stroke:none"
         id="path32"
         inkscape:connector-curvature="0" />
    </g>
    <g
       id="g34"
       transform="matrix(1.25,0,0,-1.25,415.59493,303.66786)"
       style="fill:#00458f;fill-opacity:0.94117647"
       inkscape:export-filename="/home/aaf/Documents/000_JOBS/0001_Job_search/000_Website/img/github_focus.png"
       inkscape:export-xdpi="90"
       inkscape:export-ydpi="90">
      <path
         d="M 0,0 C -0.288,-0.267 -0.852,-0.143 -1.233,0.279 -1.629,0.7 -1.702,1.264 -1.41,1.534 -1.113,1.801 -0.567,1.676 -0.172,1.255 0.224,0.829 0.301,0.271 0,0"
         style="fill:#00458f;fill-opacity:0.94117647;fill-rule:nonzero;stroke:none"
         id="path36"
         inkscape:connector-curvature="0" />
    </g>
    <g
       id="g38"
       transform="matrix(1.25,0,0,-1.25,418.57106,308.01472)"
       style="fill:#00458f;fill-opacity:0.94117647"
       inkscape:export-filename="/home/aaf/Documents/000_JOBS/0001_Job_search/000_Website/img/github_focus.png"
       inkscape:export-xdpi="90"
       inkscape:export-ydpi="90">
      <path
         d="M 0,0 C -0.37,-0.258 -0.976,-0.017 -1.35,0.52 -1.72,1.058 -1.72,1.702 -1.341,1.96 -0.967,2.218 -0.37,1.985 0.009,1.453 0.378,0.907 0.378,0.263 0,0"
         style="fill:#00458f;fill-opacity:0.94117647;fill-rule:nonzero;stroke:none"
         id="path40"
         inkscape:connector-curvature="0" />
    </g>
    <g
       id="g42"
       transform="matrix(1.25,0,0,-1.25,422.64818,312.21522)"
       style="fill:#00458f;fill-opacity:0.94117647"
       inkscape:export-filename="/home/aaf/Documents/000_JOBS/0001_Job_search/000_Website/img/github_focus.png"
       inkscape:export-xdpi="90"
       inkscape:export-ydpi="90">
      <path
         d="M 0,0 C -0.331,-0.365 -1.036,-0.267 -1.552,0.232 -2.08,0.718 -2.227,1.409 -1.896,1.774 -1.56,2.14 -0.851,2.037 -0.331,1.543 0.193,1.057 0.352,0.361 0,0"
         style="fill:#00458f;fill-opacity:0.94117647;fill-rule:nonzero;stroke:none"
         id="path44"
         inkscape:connector-curvature="0" />
    </g>
    <g
       id="g46"
       transform="matrix(1.25,0,0,-1.25,428.27318,314.6541)"
       style="fill:#00458f;fill-opacity:0.94117647"
       inkscape:export-filename="/home/aaf/Documents/000_JOBS/0001_Job_search/000_Website/img/github_focus.png"
       inkscape:export-xdpi="90"
       inkscape:export-ydpi="90">
      <path
         d="m 0,0 c -0.147,-0.473 -0.825,-0.687 -1.509,-0.486 -0.683,0.207 -1.13,0.76 -0.992,1.238 0.142,0.476 0.824,0.7 1.513,0.485 C -0.306,1.031 0.142,0.481 0,0"
         style="fill:#00458f;fill-opacity:0.94117647;fill-rule:nonzero;stroke:none"
         id="path48"
         inkscape:connector-curvature="0" />
    </g>
    <g
       id="g50"
       transform="matrix(1.25,0,0,-1.25,434.45118,315.10585)"
       style="fill:#00458f;fill-opacity:0.94117647"
       inkscape:export-filename="/home/aaf/Documents/000_JOBS/0001_Job_search/000_Website/img/github_focus.png"
       inkscape:export-xdpi="90"
       inkscape:export-ydpi="90">
      <path
         d="m 0,0 c 0.017,-0.498 -0.563,-0.911 -1.281,-0.92 -0.722,-0.016 -1.307,0.387 -1.315,0.877 0,0.503 0.568,0.911 1.289,0.924 C -0.589,0.895 0,0.494 0,0"
         style="fill:#00458f;fill-opacity:0.94117647;fill-rule:nonzero;stroke:none"
         id="path52"
         inkscape:connector-curvature="0" />
    </g>
    <g
       id="g54"
       transform="matrix(1.25,0,0,-1.25,440.19943,314.12797)"
       style="fill:#00458f;fill-opacity:0.94117647"
       inkscape:export-filename="/home/aaf/Documents/000_JOBS/0001_Job_search/000_Website/img/github_focus.png"
       inkscape:export-xdpi="90"
       inkscape:export-ydpi="90">
      <path
         d="m 0,0 c 0.086,-0.485 -0.413,-0.984 -1.126,-1.117 -0.701,-0.129 -1.35,0.172 -1.439,0.653 -0.087,0.498 0.42,0.997 1.121,1.126 C -0.73,0.786 -0.091,0.494 0,0"
         style="fill:#00458f;fill-opacity:0.94117647;fill-rule:nonzero;stroke:none"
         id="path56"
         inkscape:connector-curvature="0" />
    </g>
    <text
       xml:space="preserve"
       style="font-size:40px;font-style:normal;font-weight:normal;line-height:125%;letter-spacing:0px;word-spacing:0px;fill:#000000;fill-opacity:1;stroke:none;font-family:Sans"
       x="189.86807"
       y="54.169033"
       id="text3004"
       sodipodi:linespacing="125%"><tspan
         sodipodi:role="line"
         id="tspan3006"
         x="189.86807"
         y="54.169033"
         style="font-style:normal;font-variant:normal;font-weight:normal;font-stretch:normal;font-family:Glacial Indifference;-inkscape-font-specification:Glacial Indifference">Ángel Alonso Fonseca</tspan></text>
    <path
       style="fill:#004586;fill-opacity:1"
       d="M 187.71875 191.625 C 145.88318 191.625 111.96875 225.57432 111.96875 267.4375 C 111.96875 285.44131 118.27233 301.96589 128.75 314.96875 L 128.75 268.0625 L 148.90625 271.4375 L 148.90625 332.5 C 160.26065 339.29584 173.52627 343.21875 187.71875 343.21875 C 201.91951 343.21875 215.20372 339.30318 226.5625 332.5 L 226.5 332.5 L 226.5 271.4375 L 246.6875 268.0625 L 246.6875 315.03125 C 257.19093 302.02033 263.46875 285.46585 263.46875 267.4375 C 263.46875 225.57432 229.55432 191.625 187.71875 191.625 z M 178.28125 221.25 L 187.6875 221.25 L 187.75 221.25 L 197.15625 221.25 C 202.08021 221.25 206.0625 225.20104 206.0625 230.125 L 206.0625 237.125 L 201.25 237.125 L 201.25 230.5 C 201.25 227.42212 198.91114 225.78125 196.75 225.78125 L 187.75 225.78125 L 187.6875 225.78125 L 178.6875 225.78125 C 176.52636 225.78125 174.1875 227.42212 174.1875 230.5 L 174.1875 237.125 L 169.375 237.125 L 169.375 230.125 C 169.375 225.20104 173.35729 221.25 178.28125 221.25 z M 143.28125 237.15625 L 155.15625 237.15625 C 155.39119 237.15625 155.59375 237.32756 155.59375 237.5625 L 155.59375 239.0625 L 187.6875 239.0625 L 187.75 239.0625 L 219.84375 239.0625 L 219.84375 237.5625 C 219.84375 237.32756 220.04631 237.15625 220.28125 237.15625 L 232.15625 237.15625 C 232.39119 237.15625 232.5625 237.32756 232.5625 237.5625 L 232.5625 239.0625 L 241.90625 239.0625 C 245.30237 239.0625 248.0625 241.79138 248.0625 245.1875 L 248.0625 265.9375 L 192.875 275.15625 L 192.875 273.1875 C 192.875 272.21614 192.09636 271.4375 191.125 271.4375 L 187.75 271.4375 L 187.6875 271.4375 L 184.3125 271.4375 C 183.34114 271.4375 182.5625 272.21614 182.5625 273.1875 L 182.5625 275.15625 L 127.375 265.9375 L 127.375 245.1875 C 127.375 241.79138 130.13513 239.0625 133.53125 239.0625 L 142.875 239.0625 L 142.875 237.5625 C 142.875 237.32756 143.04631 237.15625 143.28125 237.15625 z M 151.375 271.84375 L 182.5625 277.03125 L 182.5625 280.59375 C 182.5625 281.56511 183.34114 282.34375 184.3125 282.34375 L 187.6875 282.34375 L 187.75 282.34375 L 191.125 282.34375 C 192.09636 282.34375 192.875 281.56511 192.875 280.59375 L 192.875 277.03125 L 224 271.84375 L 224 332.5 L 187.75 332.5 L 187.6875 332.5 L 151.375 332.5 L 151.375 271.84375 z M 184.71875 273.09375 L 187.625 273.09375 L 187.8125 273.09375 L 190.71875 273.09375 C 190.95369 273.09375 191.125 273.26506 191.125 273.5 L 191.125 280.09375 C 191.125 280.32869 190.95369 280.5 190.71875 280.5 L 187.8125 280.5 L 187.625 280.5 L 184.71875 280.5 C 184.48381 280.5 184.3125 280.32869 184.3125 280.09375 L 184.3125 273.5 C 184.3125 273.26506 184.48381 273.09375 184.71875 273.09375 z "
       id="path3039"
       inkscape:export-filename="/home/aaf/Documents/000_JOBS/0001_Job_search/000_Website/img/cv_focus.png"
       inkscape:export-xdpi="90"
       inkscape:export-ydpi="90" />
    <rect
       style="fill:#ffffff;fill-opacity:0.94117647;opacity:0"
       id="rect4373"
       width="160"
       height="160"
       x="0"
       y="892.36218"
       ry="0.80395639"
       inkscape:export-filename="/home/aaf/Documents/000_JOBS/0001_Job_search/000_Website/img/cv_blur.png"
       inkscape:export-xdpi="90"
       inkscape:export-ydpi="90" />
    <path
       style="fill:#002d57;fill-opacity:1;filter:url(#filter4323)"
       d="m 79.294551,897.22401 c -41.83557,0 -75.7500005,33.9493 -75.7500005,75.8125 0,18.0038 6.30358,34.52829 16.7812505,47.53109 l 0,-46.90609 20.15625,3.375 0,61.06239 c 11.3544,6.7958 24.62002,10.7187 38.8125,10.7187 14.20076,0 27.484969,-3.9155 38.843749,-10.7187 l -0.0625,0 0,-61.06239 20.1875,-3.375 0,46.96859 c 10.50343,-13.0109 16.78125,-29.56519 16.78125,-47.59359 0,-41.8632 -33.91443,-75.8125 -75.749999,-75.8125 z m -9.4375,29.625 9.40625,0 0.0625,0 9.40625,0 c 4.92396,0 8.90625,3.951 8.90625,8.875 l 0,7 -4.8125,0 0,-6.625 c 0,-3.0779 -2.33886,-4.7188 -4.5,-4.7188 l -9,0 -0.0625,0 -9,0 c -2.16114,0 -4.5,1.6409 -4.5,4.7188 l 0,6.625 -4.8125,0 0,-7 c 0,-4.924 3.98229,-8.875 8.90625,-8.875 z m -35,15.9062 11.875,0 c 0.23494,0 0.4375,0.1714 0.4375,0.4063 l 0,1.5 32.09375,0 0.0625,0 32.093749,0 0,-1.5 c 0,-0.2349 0.20256,-0.4063 0.4375,-0.4063 l 11.875,0 c 0.23494,0 0.40625,0.1714 0.40625,0.4063 l 0,1.5 9.34375,0 c 3.39612,0 6.15625,2.7289 6.15625,6.125 l 0,20.75 -55.187499,9.2187 0,-1.9687 c 0,-0.9714 -0.77864,-1.75 -1.75,-1.75 l -3.375,0 -0.0625,0 -3.375,0 c -0.97136,0 -1.75,0.7786 -1.75,1.75 l 0,1.9687 -55.1875,-9.2187 0,-20.75 c 0,-3.3961 2.76013,-6.125 6.15625,-6.125 l 9.34375,0 0,-1.5 c 0,-0.2349 0.17131,-0.4063 0.40625,-0.4063 z m 8.09375,34.6875 31.1875,5.1875 0,3.5625 c 0,0.9714 0.77864,1.75 1.75,1.75 l 3.375,0 0.0625,0 3.375,0 c 0.97136,0 1.75,-0.7786 1.75,-1.75 l 0,-3.5625 31.124999,-5.1875 0,60.65619 -36.249999,0 -0.0625,0 -36.3125,0 0,-60.65619 z m 33.34375,1.25 2.90625,0 0.1875,0 2.90625,0 c 0.23494,0 0.40625,0.1714 0.40625,0.4063 l 0,6.5937 c 0,0.235 -0.17131,0.4063 -0.40625,0.4063 l -2.90625,0 -0.1875,0 -2.90625,0 c -0.23494,0 -0.40625,-0.1713 -0.40625,-0.4063 l 0,-6.5937 c 0,-0.2349 0.17131,-0.4063 0.40625,-0.4063 z"
       id="path3247"
       inkscape:export-filename="/home/aaf/Documents/000_JOBS/0001_Job_search/000_Website/img/cv_blur.png"
       inkscape:export-xdpi="90"
       inkscape:export-ydpi="90"
       inkscape:connector-curvature="0"
       transform="matrix(1.0088966,0,0,1.0083015,0,-8.736215)" />
    <rect
       ry="0.80395639"
       y="892.36218"
       x="180"
       height="160"
       width="160"
       id="rect4375"
       style="fill:#ffffff;fill-opacity:0.94117647;opacity:0"
       inkscape:export-filename="/home/aaf/Documents/000_JOBS/0001_Job_search/000_Website/img/github_blur.png"
       inkscape:export-xdpi="90"
       inkscape:export-ydpi="90" />
    <g
       style="fill:#002d57;fill-opacity:1;filter:url(#filter4381)"
       transform="matrix(1.2648099,0,0,-1.2953502,260,896.07027)"
       id="g3215"
       inkscape:export-filename="/home/aaf/Documents/000_JOBS/0001_Job_search/000_Website/img/github_blur.png"
       inkscape:export-xdpi="90"
       inkscape:export-ydpi="90">
      <path
         inkscape:connector-curvature="0"
         id="path3217"
         style="fill:#002d57;fill-opacity:1;fill-rule:evenodd;stroke:none"
         d="m 0,0 c -33.347,0 -60.388,-27.035 -60.388,-60.388 0,-26.68 17.303,-49.316 41.297,-57.301 3.018,-0.559 4.126,1.31 4.126,2.905 0,1.439 -0.056,6.197 -0.082,11.243 -16.8,-3.653 -20.345,7.125 -20.345,7.125 -2.747,6.979 -6.705,8.836 -6.705,8.836 -5.479,3.748 0.413,3.671 0.413,3.671 6.064,-0.426 9.257,-6.224 9.257,-6.224 5.386,-9.231 14.127,-6.562 17.573,-5.019 0.543,3.902 2.107,6.567 3.834,8.075 -13.413,1.526 -27.513,6.705 -27.513,29.844 0,6.592 2.359,11.98 6.222,16.209 -0.627,1.521 -2.694,7.663 0.586,15.981 0,0 5.071,1.622 16.61,-6.191 4.817,1.338 9.983,2.009 15.115,2.033 5.132,-0.024 10.302,-0.695 15.128,-2.033 11.526,7.813 16.59,6.191 16.59,6.191 3.287,-8.318 1.22,-14.46 0.593,-15.981 3.872,-4.229 6.214,-9.617 6.214,-16.209 0,-23.195 -14.127,-28.301 -27.574,-29.796 2.166,-1.874 4.096,-5.549 4.096,-11.183 0,-8.08 -0.069,-14.583 -0.069,-16.572 0,-1.608 1.086,-3.49 4.147,-2.898 23.982,7.994 41.263,30.622 41.263,57.294 C 60.388,-27.035 33.351,0 0,0" />
    </g>
    <g
       style="fill:#002d57;fill-opacity:1;filter:url(#filter4303)"
       transform="matrix(1.2138948,0,0,-1.2419985,214.46001,1006.8978)"
       id="g3219"
       inkscape:export-filename="/home/aaf/Documents/000_JOBS/0001_Job_search/000_Website/img/github_blur.png"
       inkscape:export-xdpi="90"
       inkscape:export-ydpi="90">
      <path
         inkscape:connector-curvature="0"
         id="path3221"
         style="fill:#002d57;fill-opacity:1;fill-rule:nonzero;stroke:none"
         d="m 0,0 c -0.133,-0.301 -0.605,-0.391 -1.035,-0.185 -0.439,0.198 -0.684,0.607 -0.542,0.908 0.13,0.308 0.602,0.394 1.04,0.188 C -0.099,0.714 0.151,0.301 0,0" />
    </g>
    <g
       style="fill:#002d57;fill-opacity:1;filter:url(#filter4299)"
       transform="matrix(1.2138948,0,0,-1.2419985,217.42955,1010.2866)"
       id="g3223"
       inkscape:export-filename="/home/aaf/Documents/000_JOBS/0001_Job_search/000_Website/img/github_blur.png"
       inkscape:export-xdpi="90"
       inkscape:export-ydpi="90">
      <path
         inkscape:connector-curvature="0"
         id="path3225"
         style="fill:#002d57;fill-opacity:1;fill-rule:nonzero;stroke:none"
         d="M 0,0 C -0.288,-0.267 -0.852,-0.143 -1.233,0.279 -1.629,0.7 -1.702,1.264 -1.41,1.534 -1.113,1.801 -0.567,1.676 -0.172,1.255 0.224,0.829 0.301,0.271 0,0" />
    </g>
    <g
       style="fill:#002d57;fill-opacity:1;filter:url(#filter4295)"
       transform="matrix(1.2138948,0,0,-1.2419985,220.31972,1014.6056)"
       id="g3227"
       inkscape:export-filename="/home/aaf/Documents/000_JOBS/0001_Job_search/000_Website/img/github_blur.png"
       inkscape:export-xdpi="90"
       inkscape:export-ydpi="90">
      <path
         inkscape:connector-curvature="0"
         id="path3229"
         style="fill:#002d57;fill-opacity:1;fill-rule:nonzero;stroke:none"
         d="M 0,0 C -0.37,-0.258 -0.976,-0.017 -1.35,0.52 -1.72,1.058 -1.72,1.702 -1.341,1.96 -0.967,2.218 -0.37,1.985 0.009,1.453 0.378,0.907 0.378,0.263 0,0" />
    </g>
    <g
       style="fill:#002d57;fill-opacity:1;filter:url(#filter4291)"
       transform="matrix(1.2138948,0,0,-1.2419985,224.27908,1018.7792)"
       id="g3231"
       inkscape:export-filename="/home/aaf/Documents/000_JOBS/0001_Job_search/000_Website/img/github_blur.png"
       inkscape:export-xdpi="90"
       inkscape:export-ydpi="90">
      <path
         inkscape:connector-curvature="0"
         id="path3233"
         style="fill:#002d57;fill-opacity:1;fill-rule:nonzero;stroke:none"
         d="M 0,0 C -0.331,-0.365 -1.036,-0.267 -1.552,0.232 -2.08,0.718 -2.227,1.409 -1.896,1.774 -1.56,2.14 -0.851,2.037 -0.331,1.543 0.193,1.057 0.352,0.361 0,0" />
    </g>
    <g
       style="fill:#002d57;fill-opacity:1;filter:url(#filter4287)"
       transform="matrix(1.2138948,0,0,-1.2419985,229.7416,1021.2025)"
       id="g3235"
       inkscape:export-filename="/home/aaf/Documents/000_JOBS/0001_Job_search/000_Website/img/github_blur.png"
       inkscape:export-xdpi="90"
       inkscape:export-ydpi="90">
      <path
         inkscape:connector-curvature="0"
         id="path3237"
         style="fill:#002d57;fill-opacity:1;fill-rule:nonzero;stroke:none"
         d="m 0,0 c -0.147,-0.473 -0.825,-0.687 -1.509,-0.486 -0.683,0.207 -1.13,0.76 -0.992,1.238 0.142,0.476 0.824,0.7 1.513,0.485 C -0.306,1.031 0.142,0.481 0,0" />
    </g>
    <g
       style="fill:#002d57;fill-opacity:1;filter:url(#filter4283)"
       transform="matrix(1.2138948,0,0,-1.2419985,235.74116,1021.6513)"
       id="g3239"
       inkscape:export-filename="/home/aaf/Documents/000_JOBS/0001_Job_search/000_Website/img/github_blur.png"
       inkscape:export-xdpi="90"
       inkscape:export-ydpi="90">
      <path
         inkscape:connector-curvature="0"
         id="path3241"
         style="fill:#002d57;fill-opacity:1;fill-rule:nonzero;stroke:none"
         d="m 0,0 c 0.017,-0.498 -0.563,-0.911 -1.281,-0.92 -0.722,-0.016 -1.307,0.387 -1.315,0.877 0,0.503 0.568,0.911 1.289,0.924 C -0.589,0.895 0,0.494 0,0" />
    </g>
    <g
       style="fill:#002d57;fill-opacity:1;filter:url(#filter4279)"
       transform="matrix(1.2138948,0,0,-1.2419985,241.32337,1020.6797)"
       id="g3243"
       inkscape:export-filename="/home/aaf/Documents/000_JOBS/0001_Job_search/000_Website/img/github_blur.png"
       inkscape:export-xdpi="90"
       inkscape:export-ydpi="90">
      <path
         inkscape:connector-curvature="0"
         id="path3245"
         style="fill:#002d57;fill-opacity:1;fill-rule:nonzero;stroke:none"
         d="m 0,0 c 0.086,-0.485 -0.413,-0.984 -1.126,-1.117 -0.701,-0.129 -1.35,0.172 -1.439,0.653 -0.087,0.498 0.42,0.997 1.121,1.126 C -0.73,0.786 -0.091,0.494 0,0" />
    </g>
    <rect
       ry="0.80395639"
       y="712.36218"
       x="0"
       height="160"
       width="160"
       id="rect4385"
       style="fill:#ffffff;fill-opacity:0.94117647000000004;opacity:0"
       inkscape:export-filename="/home/aaf/Documents/000_JOBS/0001_Job_search/000_Website/img/cv_focus.png"
       inkscape:export-xdpi="90"
       inkscape:export-ydpi="90" />
    <path
       transform="matrix(1.0088966,0,0,1.0083015,0,-188.73621)"
       inkscape:connector-curvature="0"
       inkscape:export-ydpi="90"
       inkscape:export-xdpi="90"
       inkscape:export-filename="/home/aaf/Documents/000_JOBS/0001_Job_search/000_Website/img/cv_focus.png"
       id="path4387"
       d="m 79.294551,897.22401 c -41.83557,0 -75.7500005,33.9493 -75.7500005,75.8125 0,18.0038 6.30358,34.52829 16.7812505,47.53109 l 0,-46.90609 20.15625,3.375 0,61.06239 c 11.3544,6.7958 24.62002,10.7187 38.8125,10.7187 14.20076,0 27.484969,-3.9155 38.843749,-10.7187 l -0.0625,0 0,-61.06239 20.1875,-3.375 0,46.96859 c 10.50343,-13.0109 16.78125,-29.56519 16.78125,-47.59359 0,-41.8632 -33.91443,-75.8125 -75.749999,-75.8125 z m -9.4375,29.625 9.40625,0 0.0625,0 9.40625,0 c 4.92396,0 8.90625,3.951 8.90625,8.875 l 0,7 -4.8125,0 0,-6.625 c 0,-3.0779 -2.33886,-4.7188 -4.5,-4.7188 l -9,0 -0.0625,0 -9,0 c -2.16114,0 -4.5,1.6409 -4.5,4.7188 l 0,6.625 -4.8125,0 0,-7 c 0,-4.924 3.98229,-8.875 8.90625,-8.875 z m -35,15.9062 11.875,0 c 0.23494,0 0.4375,0.1714 0.4375,0.4063 l 0,1.5 32.09375,0 0.0625,0 32.093749,0 0,-1.5 c 0,-0.2349 0.20256,-0.4063 0.4375,-0.4063 l 11.875,0 c 0.23494,0 0.40625,0.1714 0.40625,0.4063 l 0,1.5 9.34375,0 c 3.39612,0 6.15625,2.7289 6.15625,6.125 l 0,20.75 -55.187499,9.2187 0,-1.9687 c 0,-0.9714 -0.77864,-1.75 -1.75,-1.75 l -3.375,0 -0.0625,0 -3.375,0 c -0.97136,0 -1.75,0.7786 -1.75,1.75 l 0,1.9687 -55.1875,-9.2187 0,-20.75 c 0,-3.3961 2.76013,-6.125 6.15625,-6.125 l 9.34375,0 0,-1.5 c 0,-0.2349 0.17131,-0.4063 0.40625,-0.4063 z m 8.09375,34.6875 31.1875,5.1875 0,3.5625 c 0,0.9714 0.77864,1.75 1.75,1.75 l 3.375,0 0.0625,0 3.375,0 c 0.97136,0 1.75,-0.7786 1.75,-1.75 l 0,-3.5625 31.124999,-5.1875 0,60.65619 -36.249999,0 -0.0625,0 -36.3125,0 0,-60.65619 z m 33.34375,1.25 2.90625,0 0.1875,0 2.90625,0 c 0.23494,0 0.40625,0.1714 0.40625,0.4063 l 0,6.5937 c 0,0.235 -0.17131,0.4063 -0.40625,0.4063 l -2.90625,0 -0.1875,0 -2.90625,0 c -0.23494,0 -0.40625,-0.1713 -0.40625,-0.4063 l 0,-6.5937 c 0,-0.2349 0.17131,-0.4063 0.40625,-0.4063 z"
       style="fill:#004586;fill-opacity:1;opacity:1" />
    <rect
       style="fill:#ffffff;fill-opacity:0.94117647000000004;opacity:0"
       id="rect4389"
       width="160"
       height="160"
       x="180"
       y="712.36218"
       ry="0.80395639"
       inkscape:export-filename="/home/aaf/Documents/000_JOBS/0001_Job_search/000_Website/img/github_focus.png"
       inkscape:export-xdpi="90"
       inkscape:export-ydpi="90" />
    <g
       inkscape:export-ydpi="90"
       inkscape:export-xdpi="90"
       inkscape:export-filename="/home/aaf/Documents/000_JOBS/0001_Job_search/000_Website/img/github_focus.png"
       id="g4391"
       transform="matrix(1.2648099,0,0,-1.2953502,260,716.07027)"
       style="fill:#004586;fill-opacity:1;opacity:1">
      <path
         d="m 0,0 c -33.347,0 -60.388,-27.035 -60.388,-60.388 0,-26.68 17.303,-49.316 41.297,-57.301 3.018,-0.559 4.126,1.31 4.126,2.905 0,1.439 -0.056,6.197 -0.082,11.243 -16.8,-3.653 -20.345,7.125 -20.345,7.125 -2.747,6.979 -6.705,8.836 -6.705,8.836 -5.479,3.748 0.413,3.671 0.413,3.671 6.064,-0.426 9.257,-6.224 9.257,-6.224 5.386,-9.231 14.127,-6.562 17.573,-5.019 0.543,3.902 2.107,6.567 3.834,8.075 -13.413,1.526 -27.513,6.705 -27.513,29.844 0,6.592 2.359,11.98 6.222,16.209 -0.627,1.521 -2.694,7.663 0.586,15.981 0,0 5.071,1.622 16.61,-6.191 4.817,1.338 9.983,2.009 15.115,2.033 5.132,-0.024 10.302,-0.695 15.128,-2.033 11.526,7.813 16.59,6.191 16.59,6.191 3.287,-8.318 1.22,-14.46 0.593,-15.981 3.872,-4.229 6.214,-9.617 6.214,-16.209 0,-23.195 -14.127,-28.301 -27.574,-29.796 2.166,-1.874 4.096,-5.549 4.096,-11.183 0,-8.08 -0.069,-14.583 -0.069,-16.572 0,-1.608 1.086,-3.49 4.147,-2.898 23.982,7.994 41.263,30.622 41.263,57.294 C 60.388,-27.035 33.351,0 0,0"
         style="fill:#004586;fill-opacity:1;fill-rule:evenodd;stroke:none"
         id="path4393"
         inkscape:connector-curvature="0" />
    </g>
    <g
       inkscape:export-ydpi="90"
       inkscape:export-xdpi="90"
       inkscape:export-filename="/home/aaf/Documents/000_JOBS/0001_Job_search/000_Website/img/github_focus.png"
       id="g4395"
       transform="matrix(1.2304916,0,0,-1.2845587,214.18917,855.85507)"
       style="fill:#002d57;fill-opacity:1;opacity:1">
      <path
         d="m 0,0 c -0.133,-0.301 -0.605,-0.391 -1.035,-0.185 -0.439,0.198 -0.684,0.607 -0.542,0.908 0.13,0.308 0.602,0.394 1.04,0.188 C -0.099,0.714 0.151,0.301 0,0"
         style="fill:#002d57;fill-opacity:1;fill-rule:nonzero;stroke:none"
         id="path4397"
         inkscape:connector-curvature="0" />
    </g>
    <g
       inkscape:export-ydpi="90"
       inkscape:export-xdpi="90"
       inkscape:export-filename="/home/aaf/Documents/000_JOBS/0001_Job_search/000_Website/img/github_focus.png"
       style="fill:#00458f;fill-opacity:0.94117647000000004;opacity:1"
       transform="matrix(1.2670904,0,0,-1.2928344,212.23992,828.30159)"
       id="g4427">
      <path
         inkscape:connector-curvature="0"
         id="path4429"
         style="fill:#00458f;fill-opacity:0.94117647000000004;fill-rule:nonzero;stroke:none"
         d="m 0,0 c -0.133,-0.301 -0.605,-0.391 -1.035,-0.185 -0.439,0.198 -0.684,0.607 -0.542,0.908 0.13,0.308 0.602,0.394 1.04,0.188 C -0.099,0.714 0.151,0.301 0,0" />
    </g>
    <g
       inkscape:export-ydpi="90"
       inkscape:export-xdpi="90"
       inkscape:export-filename="/home/aaf/Documents/000_JOBS/0001_Job_search/000_Website/img/github_focus.png"
       style="fill:#00458f;fill-opacity:0.94117647000000004;opacity:1"
       transform="matrix(1.2670904,0,0,-1.2928344,215.3396,831.8291)"
       id="g4431">
      <path
         inkscape:connector-curvature="0"
         id="path4433"
         style="fill:#00458f;fill-opacity:0.94117647000000004;fill-rule:nonzero;stroke:none"
         d="M 0,0 C -0.288,-0.267 -0.852,-0.143 -1.233,0.279 -1.629,0.7 -1.702,1.264 -1.41,1.534 -1.113,1.801 -0.567,1.676 -0.172,1.255 0.224,0.829 0.301,0.271 0,0" />
    </g>
    <g
       inkscape:export-ydpi="90"
       inkscape:export-xdpi="90"
       inkscape:export-filename="/home/aaf/Documents/000_JOBS/0001_Job_search/000_Website/img/github_focus.png"
       style="fill:#00458f;fill-opacity:0.94117647000000004;opacity:1"
       transform="matrix(1.2670904,0,0,-1.2928344,218.35642,836.32492)"
       id="g4435">
      <path
         inkscape:connector-curvature="0"
         id="path4437"
         style="fill:#00458f;fill-opacity:0.94117647000000004;fill-rule:nonzero;stroke:none"
         d="M 0,0 C -0.37,-0.258 -0.976,-0.017 -1.35,0.52 -1.72,1.058 -1.72,1.702 -1.341,1.96 -0.967,2.218 -0.37,1.985 0.009,1.453 0.378,0.907 0.378,0.263 0,0" />
    </g>
    <g
       inkscape:export-ydpi="90"
       inkscape:export-xdpi="90"
       inkscape:export-filename="/home/aaf/Documents/000_JOBS/0001_Job_search/000_Website/img/github_focus.png"
       style="fill:#00458f;fill-opacity:0.94117647000000004;opacity:1"
       transform="matrix(1.2670904,0,0,-1.2928344,222.48928,840.66936)"
       id="g4439">
      <path
         inkscape:connector-curvature="0"
         id="path4441"
         style="fill:#00458f;fill-opacity:0.94117647000000004;fill-rule:nonzero;stroke:none"
         d="M 0,0 C -0.331,-0.365 -1.036,-0.267 -1.552,0.232 -2.08,0.718 -2.227,1.409 -1.896,1.774 -1.56,2.14 -0.851,2.037 -0.331,1.543 0.193,1.057 0.352,0.361 0,0" />
    </g>
    <g
       inkscape:export-ydpi="90"
       inkscape:export-xdpi="90"
       inkscape:export-filename="/home/aaf/Documents/000_JOBS/0001_Job_search/000_Website/img/github_focus.png"
       style="fill:#00458f;fill-opacity:0.94117647000000004;opacity:1"
       transform="matrix(1.2670904,0,0,-1.2928344,228.19119,843.19181)"
       id="g4443">
      <path
         inkscape:connector-curvature="0"
         id="path4445"
         style="fill:#00458f;fill-opacity:0.94117647000000004;fill-rule:nonzero;stroke:none"
         d="m 0,0 c -0.147,-0.473 -0.825,-0.687 -1.509,-0.486 -0.683,0.207 -1.13,0.76 -0.992,1.238 0.142,0.476 0.824,0.7 1.513,0.485 C -0.306,1.031 0.142,0.481 0,0" />
    </g>
    <g
       inkscape:export-ydpi="90"
       inkscape:export-xdpi="90"
       inkscape:export-filename="/home/aaf/Documents/000_JOBS/0001_Job_search/000_Website/img/github_focus.png"
       style="fill:#00458f;fill-opacity:0.94117647000000004;opacity:1"
       transform="matrix(1.2670904,0,0,-1.2928344,234.45365,843.65904)"
       id="g4447">
      <path
         inkscape:connector-curvature="0"
         id="path4449"
         style="fill:#00458f;fill-opacity:0.94117647000000004;fill-rule:nonzero;stroke:none"
         d="m 0,0 c 0.017,-0.498 -0.563,-0.911 -1.281,-0.92 -0.722,-0.016 -1.307,0.387 -1.315,0.877 0,0.503 0.568,0.911 1.289,0.924 C -0.589,0.895 0,0.494 0,0" />
    </g>
    <g
       inkscape:export-ydpi="90"
       inkscape:export-xdpi="90"
       inkscape:export-filename="/home/aaf/Documents/000_JOBS/0001_Job_search/000_Website/img/github_focus.png"
       style="fill:#00458f;fill-opacity:0.94117647000000004;opacity:1"
       transform="matrix(1.2670904,0,0,-1.2928344,240.2805,842.64765)"
       id="g4451">
      <path
         inkscape:connector-curvature="0"
         id="path4453"
         style="fill:#00458f;fill-opacity:0.94117647000000004;fill-rule:nonzero;stroke:none"
         d="m 0,0 c 0.086,-0.485 -0.413,-0.984 -1.126,-1.117 -0.701,-0.129 -1.35,0.172 -1.439,0.653 -0.087,0.498 0.42,0.997 1.121,1.126 C -0.73,0.786 -0.091,0.494 0,0" />
    </g>
  </g>
</svg>
