<?xml version="1.0" encoding="UTF-8" standalone="no"?>
<!-- Created with Inkscape (http://www.inkscape.org/) -->

<svg
   xmlns:dc="http://purl.org/dc/elements/1.1/"
   xmlns:cc="http://creativecommons.org/ns#"
   xmlns:rdf="http://www.w3.org/1999/02/22-rdf-syntax-ns#"
   xmlns:svg="http://www.w3.org/2000/svg"
   xmlns="http://www.w3.org/2000/svg"
   xmlns:sodipodi="http://sodipodi.sourceforge.net/DTD/sodipodi-0.dtd"
   xmlns:inkscape="http://www.inkscape.org/namespaces/inkscape"
   width="744.09448819"
   height="1052.3622047"
   id="svg2"
   version="1.1"
   inkscape:version="0.92.3 (2405546, 2018-03-11)"
   sodipodi:docname="layout.svg">
  <defs
     id="defs4">
    <filter
       inkscape:collect="always"
       id="filter4279"
       x="-2.1342142"
       width="5.2684285"
       y="-3.0018274"
       height="7.0036548">
      <feGaussianBlur
         inkscape:collect="always"
         stdDeviation="2.2981529"
         id="feGaussianBlur4281" />
    </filter>
    <filter
       inkscape:collect="always"
       id="filter4283"
       x="-2.1243423"
       width="5.2486847"
       y="-3.0611149"
       height="7.1222298">
      <feGaussianBlur
         inkscape:collect="always"
         stdDeviation="2.2981529"
         id="feGaussianBlur4285" />
    </filter>
    <filter
       inkscape:collect="always"
       id="filter4287"
       x="-2.1610101"
       width="5.3220201"
       y="-2.9332592"
       height="6.8665185">
      <feGaussianBlur
         inkscape:collect="always"
         stdDeviation="2.2981529"
         id="feGaussianBlur4289" />
    </filter>
    <filter
       inkscape:collect="always"
       id="filter4291"
       x="-2.4400094"
       width="5.8800187"
       y="-2.4925134"
       height="5.9850269">
      <feGaussianBlur
         inkscape:collect="always"
         stdDeviation="2.2981529"
         id="feGaussianBlur4293" />
    </filter>
    <filter
       inkscape:collect="always"
       id="filter4295"
       x="-2.8861896"
       width="6.7723791"
       y="-2.5425314"
       height="6.0850629">
      <feGaussianBlur
         inkscape:collect="always"
         stdDeviation="2.2981529"
         id="feGaussianBlur4297" />
    </filter>
    <filter
       inkscape:collect="always"
       id="filter4299"
       x="-3.1132229"
       width="7.2264458"
       y="-3.0386508"
       height="7.0773016">
      <feGaussianBlur
         inkscape:collect="always"
         stdDeviation="2.2981529"
         id="feGaussianBlur4301" />
    </filter>
    <filter
       inkscape:collect="always"
       id="filter4303"
       x="-3.3195409"
       width="7.6390817"
       y="-4.1794543"
       height="9.3589086">
      <feGaussianBlur
         inkscape:collect="always"
         stdDeviation="2.2981529"
         id="feGaussianBlur4305" />
    </filter>
    <filter
       inkscape:collect="always"
       id="filter4323">
      <feGaussianBlur
         inkscape:collect="always"
         stdDeviation="1.476896"
         id="feGaussianBlur4325" />
    </filter>
    <filter
       inkscape:collect="always"
       id="filter4381">
      <feGaussianBlur
         inkscape:collect="always"
         stdDeviation="1.1927549"
         id="feGaussianBlur4383" />
    </filter>
  </defs>
  <sodipodi:namedview
     id="base"
     pagecolor="#ffffff"
     bordercolor="#666666"
     borderopacity="1.0"
     inkscape:pageopacity="0.0"
     inkscape:pageshadow="2"
     inkscape:zoom="0.7707865"
     inkscape:cx="533.58499"
     inkscape:cy="275.61985"
     inkscape:document-units="px"
     inkscape:current-layer="layer1"
     showgrid="false"
     inkscape:window-width="1920"
     inkscape:window-height="1025"
     inkscape:window-x="0"
     inkscape:window-y="27"
     inkscape:window-maximized="1" />
  <metadata
     id="metadata7">
    <rdf:RDF>
      <cc:Work
         rdf:about="">
        <dc:format>image/svg+xml</dc:format>
        <dc:type
           rdf:resource="http://purl.org/dc/dcmitype/StillImage" />
        <dc:title />
      </cc:Work>
    </rdf:RDF>
  </metadata>
  <g
     inkscape:label="Layer 1"
     inkscape:groupmode="layer"
     id="layer1">
    <g
       id="g26"
       transform="matrix(1.25,0,0,-1.25,459.43156,191.87823)"
       style="fill:#00458f;fill-opacity:0.94117647"
       inkscape:export-filename="/home/aaf/Documents/000_JOBS/0001_Job_search/000_Website/img/github_focus.png"
       inkscape:export-xdpi="90"
       inkscape:export-ydpi="90">
      <path
         d="m 0,0 c -33.347,0 -60.388,-27.035 -60.388,-60.388 0,-26.68 17.303,-49.316 41.297,-57.301 3.018,-0.559 4.126,1.31 4.126,2.905 0,1.439 -0.056,6.197 -0.082,11.243 -16.8,-3.653 -20.345,7.125 -20.345,7.125 -2.747,6.979 -6.705,8.836 -6.705,8.836 -5.479,3.748 0.413,3.671 0.413,3.671 6.064,-0.426 9.257,-6.224 9.257,-6.224 5.386,-9.231 14.127,-6.562 17.573,-5.019 0.543,3.902 2.107,6.567 3.834,8.075 -13.413,1.526 -27.513,6.705 -27.513,29.844 0,6.592 2.359,11.98 6.222,16.209 -0.627,1.521 -2.694,7.663 0.586,15.981 0,0 5.071,1.622 16.61,-6.191 4.817,1.338 9.983,2.009 15.115,2.033 5.132,-0.024 10.302,-0.695 15.128,-2.033 11.526,7.813 16.59,6.191 16.59,6.191 3.287,-8.318 1.22,-14.46 0.593,-15.981 3.872,-4.229 6.214,-9.617 6.214,-16.209 0,-23.195 -14.127,-28.301 -27.574,-29.796 2.166,-1.874 4.096,-5.549 4.096,-11.183 0,-8.08 -0.069,-14.583 -0.069,-16.572 0,-1.608 1.086,-3.49 4.147,-2.898 23.982,7.994 41.263,30.622 41.263,57.294 C 60.388,-27.035 33.351,0 0,0"
         style="fill:#00458f;fill-opacity:0.94117647;fill-rule:evenodd;stroke:none"
         id="path28"
         inkscape:connector-curvature="0" />
    </g>
    <g
       id="g30"
       transform="matrix(1.25,0,0,-1.25,412.53706,300.25722)"
       style="fill:#00458f;fill-opacity:0.94117647"
       inkscape:export-filename="/home/aaf/Documents/000_JOBS/0001_Job_search/000_Website/img/github_focus.png"
       inkscape:export-xdpi="90"
       inkscape:export-ydpi="90">
      <path
         d="m 0,0 c -0.133,-0.301 -0.605,-0.391 -1.035,-0.185 -0.439,0.198 -0.684,0.607 -0.542,0.908 0.13,0.308 0.602,0.394 1.04,0.188 C -0.099,0.714 0.151,0.301 0,0"
         style="fill:#00458f;fill-opacity:0.94117647;fill-rule:nonzero;stroke:none"
         id="path32"
         inkscape:connector-curvature="0" />
    </g>
    <g
       id="g34"
       transform="matrix(1.25,0,0,-1.25,415.59493,303.66786)"
       style="fill:#00458f;fill-opacity:0.94117647"
       inkscape:export-filename="/home/aaf/Documents/000_JOBS/0001_Job_search/000_Website/img/github_focus.png"
       inkscape:export-xdpi="90"
       inkscape:export-ydpi="90">
      <path
         d="M 0,0 C -0.288,-0.267 -0.852,-0.143 -1.233,0.279 -1.629,0.7 -1.702,1.264 -1.41,1.534 -1.113,1.801 -0.567,1.676 -0.172,1.255 0.224,0.829 0.301,0.271 0,0"
         style="fill:#00458f;fill-opacity:0.94117647;fill-rule:nonzero;stroke:none"
         id="path36"
         inkscape:connector-curvature="0" />
    </g>
    <g
       id="g38"
       transform="matrix(1.25,0,0,-1.25,418.57106,308.01472)"
       style="fill:#00458f;fill-opacity:0.94117647"
       inkscape:export-filename="/home/aaf/Documents/000_JOBS/0001_Job_search/000_Website/img/github_focus.png"
       inkscape:export-xdpi="90"
       inkscape:export-ydpi="90">
      <path
         d="M 0,0 C -0.37,-0.258 -0.976,-0.017 -1.35,0.52 -1.72,1.058 -1.72,1.702 -1.341,1.96 -0.967,2.218 -0.37,1.985 0.009,1.453 0.378,0.907 0.378,0.263 0,0"
         style="fill:#00458f;fill-opacity:0.94117647;fill-rule:nonzero;stroke:none"
         id="path40"
         inkscape:connector-curvature="0" />
    </g>
    <g
       id="g42"
       transform="matrix(1.25,0,0,-1.25,422.64818,312.21522)"
       style="fill:#00458f;fill-opacity:0.94117647"
       inkscape:export-filename="/home/aaf/Documents/000_JOBS/0001_Job_search/000_Website/img/github_focus.png"
       inkscape:export-xdpi="90"
       inkscape:export-ydpi="90">
      <path
         d="M 0,0 C -0.331,-0.365 -1.036,-0.267 -1.552,0.232 -2.08,0.718 -2.227,1.409 -1.896,1.774 -1.56,2.14 -0.851,2.037 -0.331,1.543 0.193,1.057 0.352,0.361 0,0"
         style="fill:#00458f;fill-opacity:0.94117647;fill-rule:nonzero;stroke:none"
         id="path44"
         inkscape:connector-curvature="0" />
    </g>
    <g
       id="g46"
       transform="matrix(1.25,0,0,-1.25,428.27318,314.6541)"
       style="fill:#00458f;fill-opacity:0.94117647"
       inkscape:export-filename="/home/aaf/Documents/000_JOBS/0001_Job_search/000_Website/img/github_focus.png"
       inkscape:export-xdpi="90"
       inkscape:export-ydpi="90">
      <path
         d="m 0,0 c -0.147,-0.473 -0.825,-0.687 -1.509,-0.486 -0.683,0.207 -1.13,0.76 -0.992,1.238 0.142,0.476 0.824,0.7 1.513,0.485 C -0.306,1.031 0.142,0.481 0,0"
         style="fill:#00458f;fill-opacity:0.94117647;fill-rule:nonzero;stroke:none"
         id="path48"
         inkscape:connector-curvature="0" />
    </g>
    <g
       id="g50"
       transform="matrix(1.25,0,0,-1.25,434.45118,315.10585)"
       style="fill:#00458f;fill-opacity:0.94117647"
       inkscape:export-filename="/home/aaf/Documents/000_JOBS/0001_Job_search/000_Website/img/github_focus.png"
       inkscape:export-xdpi="90"
       inkscape:export-ydpi="90">
      <path
         d="m 0,0 c 0.017,-0.498 -0.563,-0.911 -1.281,-0.92 -0.722,-0.016 -1.307,0.387 -1.315,0.877 0,0.503 0.568,0.911 1.289,0.924 C -0.589,0.895 0,0.494 0,0"
         style="fill:#00458f;fill-opacity:0.94117647;fill-rule:nonzero;stroke:none"
         id="path52"
         inkscape:connector-curvature="0" />
    </g>
    <g
       id="g54"
       transform="matrix(1.25,0,0,-1.25,440.19943,314.12797)"
       style="fill:#00458f;fill-opacity:0.94117647"
       inkscape:export-filename="/home/aaf/Documents/000_JOBS/0001_Job_search/000_Website/img/github_focus.png"
       inkscape:export-xdpi="90"
       inkscape:export-ydpi="90">
      <path
         d="m 0,0 c 0.086,-0.485 -0.413,-0.984 -1.126,-1.117 -0.701,-0.129 -1.35,0.172 -1.439,0.653 -0.087,0.498 0.42,0.997 1.121,1.126 C -0.73,0.786 -0.091,0.494 0,0"
         style="fill:#00458f;fill-opacity:0.94117647;fill-rule:nonzero;stroke:none"
         id="path56"
         inkscape:connector-curvature="0" />
    </g>
    <text
       xml:space="preserve"
       style="font-style:normal;font-weight:normal;line-height:0%;font-family:sans-serif;letter-spacing:0px;word-spacing:0px;fill:#000000;fill-opacity:1;stroke:none"
       x="189.86807"
       y="54.169033"
       id="text3004"><tspan
         sodipodi:role="line"
         id="tspan3006"
         x="189.86807"
         y="54.169033"
         style="font-style:normal;font-variant:normal;font-weight:normal;font-stretch:normal;font-size:40px;line-height:1.25;font-family:'Glacial Indifference';-inkscape-font-specification:'Glacial Indifference'">Ángel Alonso Fonseca</tspan></text>
    <path
       style="fill:#004586;fill-opacity:1"
       d="M 187.71875 191.625 C 145.88318 191.625 111.96875 225.57432 111.96875 267.4375 C 111.96875 285.44131 118.27233 301.96589 128.75 314.96875 L 128.75 268.0625 L 148.90625 271.4375 L 148.90625 332.5 C 160.26065 339.29584 173.52627 343.21875 187.71875 343.21875 C 201.91951 343.21875 215.20372 339.30318 226.5625 332.5 L 226.5 332.5 L 226.5 271.4375 L 246.6875 268.0625 L 246.6875 315.03125 C 257.19093 302.02033 263.46875 285.46585 263.46875 267.4375 C 263.46875 225.57432 229.55432 191.625 187.71875 191.625 z M 178.28125 221.25 L 187.6875 221.25 L 187.75 221.25 L 197.15625 221.25 C 202.08021 221.25 206.0625 225.20104 206.0625 230.125 L 206.0625 237.125 L 201.25 237.125 L 201.25 230.5 C 201.25 227.42212 198.91114 225.78125 196.75 225.78125 L 187.75 225.78125 L 187.6875 225.78125 L 178.6875 225.78125 C 176.52636 225.78125 174.1875 227.42212 174.1875 230.5 L 174.1875 237.125 L 169.375 237.125 L 169.375 230.125 C 169.375 225.20104 173.35729 221.25 178.28125 221.25 z M 143.28125 237.15625 L 155.15625 237.15625 C 155.39119 237.15625 155.59375 237.32756 155.59375 237.5625 L 155.59375 239.0625 L 187.6875 239.0625 L 187.75 239.0625 L 219.84375 239.0625 L 219.84375 237.5625 C 219.84375 237.32756 220.04631 237.15625 220.28125 237.15625 L 232.15625 237.15625 C 232.39119 237.15625 232.5625 237.32756 232.5625 237.5625 L 232.5625 239.0625 L 241.90625 239.0625 C 245.30237 239.0625 248.0625 241.79138 248.0625 245.1875 L 248.0625 265.9375 L 192.875 275.15625 L 192.875 273.1875 C 192.875 272.21614 192.09636 271.4375 191.125 271.4375 L 187.75 271.4375 L 187.6875 271.4375 L 184.3125 271.4375 C 183.34114 271.4375 182.5625 272.21614 182.5625 273.1875 L 182.5625 275.15625 L 127.375 265.9375 L 127.375 245.1875 C 127.375 241.79138 130.13513 239.0625 133.53125 239.0625 L 142.875 239.0625 L 142.875 237.5625 C 142.875 237.32756 143.04631 237.15625 143.28125 237.15625 z M 151.375 271.84375 L 182.5625 277.03125 L 182.5625 280.59375 C 182.5625 281.56511 183.34114 282.34375 184.3125 282.34375 L 187.6875 282.34375 L 187.75 282.34375 L 191.125 282.34375 C 192.09636 282.34375 192.875 281.56511 192.875 280.59375 L 192.875 277.03125 L 224 271.84375 L 224 332.5 L 187.75 332.5 L 187.6875 332.5 L 151.375 332.5 L 151.375 271.84375 z M 184.71875 273.09375 L 187.625 273.09375 L 187.8125 273.09375 L 190.71875 273.09375 C 190.95369 273.09375 191.125 273.26506 191.125 273.5 L 191.125 280.09375 C 191.125 280.32869 190.95369 280.5 190.71875 280.5 L 187.8125 280.5 L 187.625 280.5 L 184.71875 280.5 C 184.48381 280.5 184.3125 280.32869 184.3125 280.09375 L 184.3125 273.5 C 184.3125 273.26506 184.48381 273.09375 184.71875 273.09375 z "
       id="path3039"
       inkscape:export-filename="/home/aaf/Documents/000_JOBS/0001_Job_search/000_Website/img/cv_focus.png"
       inkscape:export-xdpi="90"
       inkscape:export-ydpi="90" />
    <rect
       style="opacity:0;fill:#ffffff;fill-opacity:0.94117647;stroke-width:1.92644334"
       id="rect4373"
       width="308.23093"
       height="308.23093"
       x="750.84741"
       y="733.28149"
       ry="1.5487764"
       inkscape:export-filename="/home/aaf/Documents/000_JOBS/0001_Job_search/000_Website/img/cv_blur.png"
       inkscape:export-xdpi="90"
       inkscape:export-ydpi="90" />
    <path
       style="fill:#002d57;fill-opacity:1;filter:url(#filter4323)"
       d="m 79.294551,897.22401 c -41.83557,0 -75.7500005,33.9493 -75.7500005,75.8125 0,18.0038 6.30358,34.52829 16.7812505,47.53109 v -46.90609 l 20.15625,3.375 v 61.06239 c 11.3544,6.7958 24.62002,10.7187 38.8125,10.7187 14.20076,0 27.484969,-3.9155 38.843749,-10.7187 h -0.0625 v -61.06239 l 20.1875,-3.375 v 46.96859 c 10.50343,-13.0109 16.78125,-29.56519 16.78125,-47.59359 0,-41.8632 -33.91443,-75.8125 -75.749999,-75.8125 z m -9.4375,29.625 h 9.40625 0.0625 9.40625 c 4.92396,0 8.90625,3.951 8.90625,8.875 v 7 h -4.8125 v -6.625 c 0,-3.0779 -2.33886,-4.7188 -4.5,-4.7188 h -9 -0.0625 -9 c -2.16114,0 -4.5,1.6409 -4.5,4.7188 v 6.625 h -4.8125 v -7 c 0,-4.924 3.98229,-8.875 8.90625,-8.875 z m -35,15.9062 h 11.875 c 0.23494,0 0.4375,0.1714 0.4375,0.4063 v 1.5 h 32.09375 0.0625 32.093749 v -1.5 c 0,-0.2349 0.20256,-0.4063 0.4375,-0.4063 h 11.875 c 0.23494,0 0.40625,0.1714 0.40625,0.4063 v 1.5 h 9.34375 c 3.39612,0 6.15625,2.7289 6.15625,6.125 v 20.75 l -55.187499,9.2187 v -1.9687 c 0,-0.9714 -0.77864,-1.75 -1.75,-1.75 h -3.375 -0.0625 -3.375 c -0.97136,0 -1.75,0.7786 -1.75,1.75 v 1.9687 l -55.1875,-9.2187 v -20.75 c 0,-3.3961 2.76013,-6.125 6.15625,-6.125 h 9.34375 v -1.5 c 0,-0.2349 0.17131,-0.4063 0.40625,-0.4063 z m 8.09375,34.6875 31.1875,5.1875 v 3.5625 c 0,0.9714 0.77864,1.75 1.75,1.75 h 3.375 0.0625 3.375 c 0.97136,0 1.75,-0.7786 1.75,-1.75 v -3.5625 l 31.124999,-5.1875 v 60.65619 h -36.249999 -0.0625 -36.3125 z m 33.34375,1.25 h 2.90625 0.1875 2.90625 c 0.23494,0 0.40625,0.1714 0.40625,0.4063 v 6.5937 c 0,0.235 -0.17131,0.4063 -0.40625,0.4063 h -2.90625 -0.1875 -2.90625 c -0.23494,0 -0.40625,-0.1713 -0.40625,-0.4063 v -6.5937 c 0,-0.2349 0.17131,-0.4063 0.40625,-0.4063 z"
       id="path3247"
       inkscape:export-filename="/home/aaf/Documents/000_JOBS/0001_Job_search/000_Website/img/cv_blur.png"
       inkscape:export-xdpi="90"
       inkscape:export-ydpi="90"
       inkscape:connector-curvature="0"
       transform="matrix(1.9435821,0,0,1.9424357,750.84745,-1002.6335)" />
    <rect
       ry="1.5487764"
       y="733.28149"
       x="1097.6072"
       height="308.23093"
       width="308.23093"
       id="rect4375"
       style="opacity:0;fill:#ffffff;fill-opacity:0.94117647;stroke-width:1.92644334"
       inkscape:export-filename="/home/aaf/Documents/000_JOBS/0001_Job_search/000_Website/img/github_blur.png"
       inkscape:export-xdpi="90"
       inkscape:export-ydpi="90" />
    <g
       style="fill:#002d57;fill-opacity:1;filter:url(#filter4381)"
       transform="matrix(2.4365846,0,0,-2.4954187,1251.7227,740.42494)"
       id="g3215"
       inkscape:export-filename="/home/aaf/Documents/000_JOBS/0001_Job_search/000_Website/img/github_blur.png"
       inkscape:export-xdpi="90"
       inkscape:export-ydpi="90">
      <path
         inkscape:connector-curvature="0"
         id="path3217"
         style="fill:#002d57;fill-opacity:1;fill-rule:evenodd;stroke:none"
         d="m 0,0 c -33.347,0 -60.388,-27.035 -60.388,-60.388 0,-26.68 17.303,-49.316 41.297,-57.301 3.018,-0.559 4.126,1.31 4.126,2.905 0,1.439 -0.056,6.197 -0.082,11.243 -16.8,-3.653 -20.345,7.125 -20.345,7.125 -2.747,6.979 -6.705,8.836 -6.705,8.836 -5.479,3.748 0.413,3.671 0.413,3.671 6.064,-0.426 9.257,-6.224 9.257,-6.224 5.386,-9.231 14.127,-6.562 17.573,-5.019 0.543,3.902 2.107,6.567 3.834,8.075 -13.413,1.526 -27.513,6.705 -27.513,29.844 0,6.592 2.359,11.98 6.222,16.209 -0.627,1.521 -2.694,7.663 0.586,15.981 0,0 5.071,1.622 16.61,-6.191 4.817,1.338 9.983,2.009 15.115,2.033 5.132,-0.024 10.302,-0.695 15.128,-2.033 11.526,7.813 16.59,6.191 16.59,6.191 3.287,-8.318 1.22,-14.46 0.593,-15.981 3.872,-4.229 6.214,-9.617 6.214,-16.209 0,-23.195 -14.127,-28.301 -27.574,-29.796 2.166,-1.874 4.096,-5.549 4.096,-11.183 0,-8.08 -0.069,-14.583 -0.069,-16.572 0,-1.608 1.086,-3.49 4.147,-2.898 23.982,7.994 41.263,30.622 41.263,57.294 C 60.388,-27.035 33.351,0 0,0" />
    </g>
    <g
       style="fill:#002d57;fill-opacity:1;filter:url(#filter4303)"
       transform="matrix(2.3384995,0,0,-2.3926397,1163.9925,953.9279)"
       id="g3219"
       inkscape:export-filename="/home/aaf/Documents/000_JOBS/0001_Job_search/000_Website/img/github_blur.png"
       inkscape:export-xdpi="90"
       inkscape:export-ydpi="90">
      <path
         inkscape:connector-curvature="0"
         id="path3221"
         style="fill:#002d57;fill-opacity:1;fill-rule:nonzero;stroke:none"
         d="m 0,0 c -0.133,-0.301 -0.605,-0.391 -1.035,-0.185 -0.439,0.198 -0.684,0.607 -0.542,0.908 0.13,0.308 0.602,0.394 1.04,0.188 C -0.099,0.714 0.151,0.301 0,0" />
    </g>
    <g
       style="fill:#002d57;fill-opacity:1;filter:url(#filter4299)"
       transform="matrix(2.3384995,0,0,-2.3926397,1169.7132,960.45623)"
       id="g3223"
       inkscape:export-filename="/home/aaf/Documents/000_JOBS/0001_Job_search/000_Website/img/github_blur.png"
       inkscape:export-xdpi="90"
       inkscape:export-ydpi="90">
      <path
         inkscape:connector-curvature="0"
         id="path3225"
         style="fill:#002d57;fill-opacity:1;fill-rule:nonzero;stroke:none"
         d="M 0,0 C -0.288,-0.267 -0.852,-0.143 -1.233,0.279 -1.629,0.7 -1.702,1.264 -1.41,1.534 -1.113,1.801 -0.567,1.676 -0.172,1.255 0.224,0.829 0.301,0.271 0,0" />
    </g>
    <g
       style="fill:#002d57;fill-opacity:1;filter:url(#filter4295)"
       transform="matrix(2.3384995,0,0,-2.3926397,1175.2809,968.77654)"
       id="g3227"
       inkscape:export-filename="/home/aaf/Documents/000_JOBS/0001_Job_search/000_Website/img/github_blur.png"
       inkscape:export-xdpi="90"
       inkscape:export-ydpi="90">
      <path
         inkscape:connector-curvature="0"
         id="path3229"
         style="fill:#002d57;fill-opacity:1;fill-rule:nonzero;stroke:none"
         d="M 0,0 C -0.37,-0.258 -0.976,-0.017 -1.35,0.52 -1.72,1.058 -1.72,1.702 -1.341,1.96 -0.967,2.218 -0.37,1.985 0.009,1.453 0.378,0.907 0.378,0.263 0,0" />
    </g>
    <g
       style="fill:#002d57;fill-opacity:1;filter:url(#filter4291)"
       transform="matrix(2.3384995,0,0,-2.3926397,1182.9084,976.81674)"
       id="g3231"
       inkscape:export-filename="/home/aaf/Documents/000_JOBS/0001_Job_search/000_Website/img/github_blur.png"
       inkscape:export-xdpi="90"
       inkscape:export-ydpi="90">
      <path
         inkscape:connector-curvature="0"
         id="path3233"
         style="fill:#002d57;fill-opacity:1;fill-rule:nonzero;stroke:none"
         d="M 0,0 C -0.331,-0.365 -1.036,-0.267 -1.552,0.232 -2.08,0.718 -2.227,1.409 -1.896,1.774 -1.56,2.14 -0.851,2.037 -0.331,1.543 0.193,1.057 0.352,0.361 0,0" />
    </g>
    <g
       style="fill:#002d57;fill-opacity:1;filter:url(#filter4287)"
       transform="matrix(2.3384995,0,0,-2.3926397,1193.4316,981.48509)"
       id="g3235"
       inkscape:export-filename="/home/aaf/Documents/000_JOBS/0001_Job_search/000_Website/img/github_blur.png"
       inkscape:export-xdpi="90"
       inkscape:export-ydpi="90">
      <path
         inkscape:connector-curvature="0"
         id="path3237"
         style="fill:#002d57;fill-opacity:1;fill-rule:nonzero;stroke:none"
         d="m 0,0 c -0.147,-0.473 -0.825,-0.687 -1.509,-0.486 -0.683,0.207 -1.13,0.76 -0.992,1.238 0.142,0.476 0.824,0.7 1.513,0.485 C -0.306,1.031 0.142,0.481 0,0" />
    </g>
    <g
       style="fill:#002d57;fill-opacity:1;filter:url(#filter4283)"
       transform="matrix(2.3384995,0,0,-2.3926397,1204.9894,982.34968)"
       id="g3239"
       inkscape:export-filename="/home/aaf/Documents/000_JOBS/0001_Job_search/000_Website/img/github_blur.png"
       inkscape:export-xdpi="90"
       inkscape:export-ydpi="90">
      <path
         inkscape:connector-curvature="0"
         id="path3241"
         style="fill:#002d57;fill-opacity:1;fill-rule:nonzero;stroke:none"
         d="m 0,0 c 0.017,-0.498 -0.563,-0.911 -1.281,-0.92 -0.722,-0.016 -1.307,0.387 -1.315,0.877 0,0.503 0.568,0.911 1.289,0.924 C -0.589,0.895 0,0.494 0,0" />
    </g>
    <g
       style="fill:#002d57;fill-opacity:1;filter:url(#filter4279)"
       transform="matrix(2.3384995,0,0,-2.3926397,1215.7432,980.47794)"
       id="g3243"
       inkscape:export-filename="/home/aaf/Documents/000_JOBS/0001_Job_search/000_Website/img/github_blur.png"
       inkscape:export-xdpi="90"
       inkscape:export-ydpi="90">
      <path
         inkscape:connector-curvature="0"
         id="path3245"
         style="fill:#002d57;fill-opacity:1;fill-rule:nonzero;stroke:none"
         d="m 0,0 c 0.086,-0.485 -0.413,-0.984 -1.126,-1.117 -0.701,-0.129 -1.35,0.172 -1.439,0.653 -0.087,0.498 0.42,0.997 1.121,1.126 C -0.73,0.786 -0.091,0.494 0,0" />
    </g>
    <rect
       ry="1.5487764"
       y="386.52173"
       x="750.84741"
       height="308.23093"
       width="308.23093"
       id="rect4385"
       style="opacity:0;fill:#ffffff;fill-opacity:0.94117647;stroke-width:1.92644334"
       inkscape:export-filename="/home/aaf/Documents/000_JOBS/0001_Job_search/000_Website/img/cv_focus.png"
       inkscape:export-xdpi="90"
       inkscape:export-ydpi="90" />
    <path
       inkscape:connector-curvature="0"
       inkscape:export-ydpi="90"
       inkscape:export-xdpi="90"
       inkscape:export-filename="/home/aaf/Documents/000_JOBS/0001_Job_search/000_Website/img/cv_focus.png"
       id="path4387"
       d="m 904.96292,393.40668 c -81.31087,0 -147.22635,65.94434 -147.22635,147.26091 0,34.97122 12.25153,67.06898 32.61574,92.32609 v -91.11207 l 39.17533,6.55572 V 667.0471 c 22.0682,13.2004 47.85103,20.82038 75.43528,20.82038 27.60034,0 53.41929,-7.6056 75.49601,-20.82038 h -0.12147 V 548.43733 l 39.23604,-6.55572 v 91.23347 c 20.4143,-25.27284 32.6158,-57.42848 32.6158,-92.44749 0,-81.31657 -65.91552,-147.26091 -147.22638,-147.26091 z m -18.34256,57.54466 h 18.28182 0.12147 18.28182 c 9.57012,0 17.31003,7.67457 17.31003,17.23912 v 13.59705 h -9.35349 v -12.86864 c 0,-5.97862 -4.54576,-9.16596 -8.74612,-9.16596 h -17.49224 -0.12147 -17.49224 c -4.20035,0 -8.74612,3.18734 -8.74612,9.16596 v 12.86864 h -9.35349 v -13.59705 c 0,-9.56455 7.73991,-17.23912 17.31003,-17.23912 z m -68.02537,30.89677 h 23.08003 c 0.45663,0 0.85032,0.33294 0.85032,0.78921 v 2.91366 h 62.37684 0.12147 62.37684 v -2.91366 c 0,-0.45627 0.39369,-0.78921 0.85032,-0.78921 h 23.08003 c 0.45663,0 0.78958,0.33294 0.78958,0.78921 v 2.91366 h 18.16038 c 6.6006,0 11.9652,5.30071 11.9652,11.89742 v 40.30554 l -107.26149,17.90673 v -3.82407 c 0,-1.88689 -1.51335,-3.39927 -3.40127,-3.39927 h -6.55959 -0.12147 -6.55959 c -1.88792,0 -3.40127,1.51238 -3.40127,3.39927 v 3.82407 L 787.67988,537.75394 V 497.4484 c 0,-6.59671 5.36454,-11.89742 11.96518,-11.89742 h 18.16035 v -2.91366 c 0,-0.45627 0.33295,-0.78921 0.78958,-0.78921 z m 15.73086,67.37824 60.61547,10.07639 v 6.91992 c 0,1.88688 1.51335,3.39926 3.40127,3.39926 h 6.55959 0.12147 6.55959 c 1.88792,0 3.40127,-1.51238 3.40127,-3.39926 v -6.91992 L 975.4785,549.22635 V 667.0471 h -70.45485 -0.12147 -70.57633 z m 64.80632,2.42804 h 5.64854 0.36442 5.64853 c 0.45663,0 0.78958,0.33294 0.78958,0.78922 v 12.80783 c 0,0.45648 -0.33295,0.78922 -0.78958,0.78922 h -5.64853 -0.36442 -5.64854 c -0.45663,0 -0.78958,-0.33274 -0.78958,-0.78922 v -12.80783 c 0,-0.45628 0.33295,-0.78922 0.78958,-0.78922 z"
       style="opacity:1;fill:#004586;fill-opacity:1;stroke-width:1.94300878" />
    <rect
       style="opacity:0;fill:#ffffff;fill-opacity:0.94117647;stroke-width:1.92644334"
       id="rect4389"
       width="308.23093"
       height="308.23093"
       x="1097.6072"
       y="386.52173"
       ry="1.5487764"
       inkscape:export-filename="/home/aaf/Documents/000_JOBS/0001_Job_search/000_Website/img/github_focus.png"
       inkscape:export-xdpi="90"
       inkscape:export-ydpi="90" />
    <g
       inkscape:export-ydpi="90"
       inkscape:export-xdpi="90"
       inkscape:export-filename="/home/aaf/Documents/000_JOBS/0001_Job_search/000_Website/img/github_focus.png"
       id="g4391"
       transform="matrix(2.4365846,0,0,-2.4954187,1251.7227,393.66515)"
       style="opacity:1;fill:#004586;fill-opacity:1">
      <path
         d="m 0,0 c -33.347,0 -60.388,-27.035 -60.388,-60.388 0,-26.68 17.303,-49.316 41.297,-57.301 3.018,-0.559 4.126,1.31 4.126,2.905 0,1.439 -0.056,6.197 -0.082,11.243 -16.8,-3.653 -20.345,7.125 -20.345,7.125 -2.747,6.979 -6.705,8.836 -6.705,8.836 -5.479,3.748 0.413,3.671 0.413,3.671 6.064,-0.426 9.257,-6.224 9.257,-6.224 5.386,-9.231 14.127,-6.562 17.573,-5.019 0.543,3.902 2.107,6.567 3.834,8.075 -13.413,1.526 -27.513,6.705 -27.513,29.844 0,6.592 2.359,11.98 6.222,16.209 -0.627,1.521 -2.694,7.663 0.586,15.981 0,0 5.071,1.622 16.61,-6.191 4.817,1.338 9.983,2.009 15.115,2.033 5.132,-0.024 10.302,-0.695 15.128,-2.033 11.526,7.813 16.59,6.191 16.59,6.191 3.287,-8.318 1.22,-14.46 0.593,-15.981 3.872,-4.229 6.214,-9.617 6.214,-16.209 0,-23.195 -14.127,-28.301 -27.574,-29.796 2.166,-1.874 4.096,-5.549 4.096,-11.183 0,-8.08 -0.069,-14.583 -0.069,-16.572 0,-1.608 1.086,-3.49 4.147,-2.898 23.982,7.994 41.263,30.622 41.263,57.294 C 60.388,-27.035 33.351,0 0,0"
         style="fill:#004586;fill-opacity:1;fill-rule:evenodd;stroke:none"
         id="path4393"
         inkscape:connector-curvature="0" />
    </g>
    <g
       inkscape:export-ydpi="90"
       inkscape:export-xdpi="90"
       inkscape:export-filename="/home/aaf/Documents/000_JOBS/0001_Job_search/000_Website/img/github_focus.png"
       id="g4395"
       transform="matrix(2.3704723,0,0,-2.4746295,1163.4707,662.95264)"
       style="opacity:1;fill:#002d57;fill-opacity:1">
      <path
         d="m 0,0 c -0.133,-0.301 -0.605,-0.391 -1.035,-0.185 -0.439,0.198 -0.684,0.607 -0.542,0.908 0.13,0.308 0.602,0.394 1.04,0.188 C -0.099,0.714 0.151,0.301 0,0"
         style="fill:#002d57;fill-opacity:1;fill-rule:nonzero;stroke:none"
         id="path4397"
         inkscape:connector-curvature="0" />
    </g>
    <g
       inkscape:export-ydpi="90"
       inkscape:export-xdpi="90"
       inkscape:export-filename="/home/aaf/Documents/000_JOBS/0001_Job_search/000_Website/img/github_focus.png"
       style="opacity:1;fill:#00458f;fill-opacity:0.94117647"
       transform="matrix(2.4409778,0,0,-2.4905722,1159.7156,609.87242)"
       id="g4427">
      <path
         inkscape:connector-curvature="0"
         id="path4429"
         style="fill:#00458f;fill-opacity:0.94117647;fill-rule:nonzero;stroke:none"
         d="m 0,0 c -0.133,-0.301 -0.605,-0.391 -1.035,-0.185 -0.439,0.198 -0.684,0.607 -0.542,0.908 0.13,0.308 0.602,0.394 1.04,0.188 C -0.099,0.714 0.151,0.301 0,0" />
    </g>
    <g
       inkscape:export-ydpi="90"
       inkscape:export-xdpi="90"
       inkscape:export-filename="/home/aaf/Documents/000_JOBS/0001_Job_search/000_Website/img/github_focus.png"
       style="opacity:1;fill:#00458f;fill-opacity:0.94117647"
       transform="matrix(2.4409778,0,0,-2.4905722,1165.687,616.66797)"
       id="g4431">
      <path
         inkscape:connector-curvature="0"
         id="path4433"
         style="fill:#00458f;fill-opacity:0.94117647;fill-rule:nonzero;stroke:none"
         d="M 0,0 C -0.288,-0.267 -0.852,-0.143 -1.233,0.279 -1.629,0.7 -1.702,1.264 -1.41,1.534 -1.113,1.801 -0.567,1.676 -0.172,1.255 0.224,0.829 0.301,0.271 0,0" />
    </g>
    <g
       inkscape:export-ydpi="90"
       inkscape:export-xdpi="90"
       inkscape:export-filename="/home/aaf/Documents/000_JOBS/0001_Job_search/000_Website/img/github_focus.png"
       style="opacity:1;fill:#00458f;fill-opacity:0.94117647"
       transform="matrix(2.4409778,0,0,-2.4905722,1171.4987,625.32891)"
       id="g4435">
      <path
         inkscape:connector-curvature="0"
         id="path4437"
         style="fill:#00458f;fill-opacity:0.94117647;fill-rule:nonzero;stroke:none"
         d="M 0,0 C -0.37,-0.258 -0.976,-0.017 -1.35,0.52 -1.72,1.058 -1.72,1.702 -1.341,1.96 -0.967,2.218 -0.37,1.985 0.009,1.453 0.378,0.907 0.378,0.263 0,0" />
    </g>
    <g
       inkscape:export-ydpi="90"
       inkscape:export-xdpi="90"
       inkscape:export-filename="/home/aaf/Documents/000_JOBS/0001_Job_search/000_Website/img/github_focus.png"
       style="opacity:1;fill:#00458f;fill-opacity:0.94117647"
       transform="matrix(2.4409778,0,0,-2.4905722,1179.4604,633.69823)"
       id="g4439">
      <path
         inkscape:connector-curvature="0"
         id="path4441"
         style="fill:#00458f;fill-opacity:0.94117647;fill-rule:nonzero;stroke:none"
         d="M 0,0 C -0.331,-0.365 -1.036,-0.267 -1.552,0.232 -2.08,0.718 -2.227,1.409 -1.896,1.774 -1.56,2.14 -0.851,2.037 -0.331,1.543 0.193,1.057 0.352,0.361 0,0" />
    </g>
    <g
       inkscape:export-ydpi="90"
       inkscape:export-xdpi="90"
       inkscape:export-filename="/home/aaf/Documents/000_JOBS/0001_Job_search/000_Website/img/github_focus.png"
       style="opacity:1;fill:#00458f;fill-opacity:0.94117647"
       transform="matrix(2.4409778,0,0,-2.4905722,1190.4448,638.55759)"
       id="g4443">
      <path
         inkscape:connector-curvature="0"
         id="path4445"
         style="fill:#00458f;fill-opacity:0.94117647;fill-rule:nonzero;stroke:none"
         d="m 0,0 c -0.147,-0.473 -0.825,-0.687 -1.509,-0.486 -0.683,0.207 -1.13,0.76 -0.992,1.238 0.142,0.476 0.824,0.7 1.513,0.485 C -0.306,1.031 0.142,0.481 0,0" />
    </g>
    <g
       inkscape:export-ydpi="90"
       inkscape:export-xdpi="90"
       inkscape:export-filename="/home/aaf/Documents/000_JOBS/0001_Job_search/000_Website/img/github_focus.png"
       style="opacity:1;fill:#00458f;fill-opacity:0.94117647"
       transform="matrix(2.4409778,0,0,-2.4905722,1202.5091,639.45768)"
       id="g4447">
      <path
         inkscape:connector-curvature="0"
         id="path4449"
         style="fill:#00458f;fill-opacity:0.94117647;fill-rule:nonzero;stroke:none"
         d="m 0,0 c 0.017,-0.498 -0.563,-0.911 -1.281,-0.92 -0.722,-0.016 -1.307,0.387 -1.315,0.877 0,0.503 0.568,0.911 1.289,0.924 C -0.589,0.895 0,0.494 0,0" />
    </g>
    <g
       inkscape:export-ydpi="90"
       inkscape:export-xdpi="90"
       inkscape:export-filename="/home/aaf/Documents/000_JOBS/0001_Job_search/000_Website/img/github_focus.png"
       style="opacity:1;fill:#00458f;fill-opacity:0.94117647"
       transform="matrix(2.4409778,0,0,-2.4905722,1213.7342,637.50929)"
       id="g4451">
      <path
         inkscape:connector-curvature="0"
         id="path4453"
         style="fill:#00458f;fill-opacity:0.94117647;fill-rule:nonzero;stroke:none"
         d="m 0,0 c 0.086,-0.485 -0.413,-0.984 -1.126,-1.117 -0.701,-0.129 -1.35,0.172 -1.439,0.653 -0.087,0.498 0.42,0.997 1.121,1.126 C -0.73,0.786 -0.091,0.494 0,0" />
    </g>
  </g>
</svg>
